<?xml version="1.0" encoding="utf-8"?>
<svg viewBox="115.612 110.41 91.227 102.807" width="91.227" height="102.807" xmlns="http://www.w3.org/2000/svg">
  <g id="SvgjsG1099" featurekey="symbolFeature-0" transform="matrix(0.098517, 0, 0, 0.098517, 112.133835, 112.204361)" fill="#321abc">
    <g xmlns="http://www.w3.org/2000/svg">
      <path d="M 660.732 94.602 C 661.932 106.702 659.332 116.902 649.332 122.502 C 641.932 126.702 634.632 123.202 627.832 118.402 C 622.932 115.002 618.032 111.602 612.832 108.602 C 565.332 81.102 517.632 51.302 470.232 23.802 C 447.432 10.602 448.832 11.202 468.732 -3.898 C 495.932 -24.698 517.232 -21.098 547.432 -4.198 C 577.032 12.402 599.132 24.902 625.732 40.902 C 647.932 52.102 659.532 64.802 660.732 94.602 Z" style="fill: rgb(24, 69, 234);"/>
      <path d="M 926.215 442.513 C 916.315 449.613 906.115 452.413 896.315 446.513 C 889.015 442.113 888.415 434.013 889.115 425.813 C 889.615 419.813 890.115 413.913 890.115 407.913 C 890.315 353.013 892.415 296.813 892.715 242.113 C 892.815 215.813 893.015 217.313 916.015 227.013 C 947.615 240.313 955.115 260.513 955.415 295.113 C 955.815 329.013 956.015 354.413 955.215 385.413 C 956.715 410.313 951.515 426.613 926.215 442.513 Z" style="fill: rgb(24, 69, 234);"/>
      <path d="M 764.306 829.508 C 753.306 824.408 745.806 817.008 746.006 805.608 C 746.206 797.108 752.906 792.508 760.306 789.108 C 765.706 786.608 771.106 784.008 776.306 781.108 C 824.006 753.908 873.806 727.808 921.406 700.808 C 944.306 687.808 943.106 688.708 946.106 713.408 C 950.306 747.408 936.506 763.908 906.706 781.508 C 877.506 798.708 855.506 811.508 828.306 826.308 C 807.406 839.908 790.606 843.508 764.306 829.508 Z" style="fill: rgb(24, 69, 234);"/>
      <path d="M 331.508 911.367 C 330.408 899.267 333.108 889.067 343.108 883.567 C 350.608 879.467 357.808 882.967 364.608 887.767 C 369.508 891.267 374.408 894.567 379.508 897.667 C 426.808 925.467 474.308 955.667 521.408 983.567 C 544.108 996.967 542.708 996.367 522.708 1011.267 C 495.308 1031.867 474.108 1028.167 444.008 1010.967 C 414.508 994.167 392.508 981.567 366.108 965.267 C 344.008 953.967 332.508 941.167 331.508 911.367 Z" style="fill: rgb(24, 69, 234);"/>
      <path d="M 65.644 566.489 C 75.544 559.489 85.744 556.789 95.544 562.689 C 102.844 567.089 103.344 575.189 102.544 583.389 C 101.944 589.389 101.444 595.289 101.444 601.289 C 100.844 656.189 98.344 712.389 97.644 767.089 C 97.344 793.389 97.144 791.889 74.244 782.089 C 42.744 768.589 35.444 748.289 35.344 713.689 C 35.244 679.789 35.244 654.389 36.144 623.389 C 34.944 598.589 40.344 582.189 65.644 566.489 Z" style="fill: rgb(24, 69, 234);"/>
      <path d="M 222.273 168.917 C 233.273 174.017 240.673 181.517 240.373 193.017 C 240.173 201.517 233.373 206.017 225.873 209.417 C 220.473 211.917 215.073 214.417 209.873 217.317 C 161.973 244.117 111.973 269.917 64.173 296.517 C 41.173 309.317 42.473 308.417 39.573 283.717 C 35.673 249.717 49.573 233.217 79.473 215.917 C 108.873 198.917 130.873 186.317 158.273 171.717 C 179.173 158.217 196.073 154.717 222.273 168.917 Z" style="fill: rgb(24, 69, 234);"/>
    </g>
    <path xmlns="http://www.w3.org/2000/svg" d="M729.8,111.2c-40,0-72.5,32.5-72.5,72.5c0,27.2,15.1,51,37.3,63.4c-0.4,64-0.6,127.9-0.3,191.9    c0.1,17.5-7.1,25.5-21.2,36.7c-8.2,6.6-14.8,12.4-20,18c-4.7,5-11.8,7.1-18.5,5.5l-46.7-10.8c5.9,20.4,0.8,42.7-13.3,58.6l60,13.9    c2.2,0.5,4.3,0.5,6.4,0.2c2.8,1.1,6.7-0.4,11.5-3.1c14.7-8.5,62.9-35.4,72.5-41.3c21.3-13,30.8-24.9,30.2-50.3    c-1.5-71.5-1.8-143.2,0.3-214.7c27.4-10.4,46.8-36.9,46.8-67.8C802.4,143.7,769.8,111.2,729.8,111.2z M755.7,223.6    c-7.4,4.8-16.3,7.7-25.9,7.7c-13.9,0-26.3-5.9-35-15.4c-7.8-8.5-12.5-19.8-12.5-32.1c0-26.3,21.3-47.5,47.5-47.5    c26.3,0,47.5,21.3,47.5,47.5C777.4,200.4,768.8,215.1,755.7,223.6z" style="fill: rgb(24, 69, 234);"/>
    <path xmlns="http://www.w3.org/2000/svg" d="M888.8,473.5c-38.9,0-70.8,30.8-72.5,69.4c-55.8,31.6-111.5,63.3-167,95.5c-15.1,8.8-25.6,6.5-42.3-0.2  c-10.5-4.2-19.3-7.1-27.1-8.8c-7.1-1.5-12.7-6.7-14.7-13.6L552,570.9c-11.7,11.8-27.6,18.2-43.9,18.2c-4.6,0-9.4-0.5-13.9-1.6  l17.4,59.4c1.1,3.7,3.5,6.7,6.5,8.6c1.4,2,4,3.8,7.4,5.8c14.7,8.6,62,36.9,71.9,42.3c21.9,12,36.9,14.3,58.7,1.2  c60.4-36.5,121.6-71.9,183.8-105.3c12.9,11.8,30.1,19,48.9,19c40,0,72.5-32.5,72.5-72.5S928.8,473.5,888.8,473.5z M888.8,593.6  c-9.2,0-17.8-2.6-25.1-7.2c-13.5-8.4-22.5-23.3-22.5-40.4c0-7,1.5-13.7,4.3-19.7c7.5-16.4,24.1-27.9,43.3-27.9  c26.3,0,47.5,21.3,47.5,47.5C936.4,572.3,915.1,593.6,888.8,593.6z" style="fill: rgb(24, 69, 234);"/>
    <path xmlns="http://www.w3.org/2000/svg" d="M657.7,785c-13.9,0-26.9,3.9-38,10.8c-55-32.6-110.2-65-165.6-97c-15.1-8.7-18.3-19-20.9-36.9  c-1.6-11-3.5-20-5.8-27.5c-2.1-6.8-0.5-14.2,4.3-19.4l32.4-34.5c-20.7-5.2-37.4-20.7-43.9-41l-42,44.9c-2.4,2.5-3.8,5.6-4,8.8v0.1  c-1.1,2.2-1.4,5.4-1.4,9.3c-0.1,17-1.2,72.2-0.9,83.5c0.6,25,6,39.2,28.2,51.5c62.8,35,125.1,71,186.1,109.1  c-0.5,3.6-0.8,7.2-0.8,10.9c0,40,32.6,72.5,72.5,72.5c40,0,72.5-32.5,72.5-72.5S697.7,785,657.7,785z M657.7,905  c-25.1,0-45.7-19.5-47.4-44.2c-0.1-1.1-0.1-2.2-0.1-3.3c0-22.3,15.3-41,36-46.1c3.7-0.9,7.5-1.4,11.5-1.4  c26.3,0,47.5,21.3,47.5,47.5C705.3,883.8,684,905,657.7,905z" style="fill: rgb(24, 69, 234);"/>
    <path xmlns="http://www.w3.org/2000/svg" d="M424.7,450.5l-60.1-14c-3.7-0.8-7.4-0.3-10.5,1.3c-1.9,0.5-4.2,1.6-6.7,3c-14.8,8.4-63.2,34.9-72.9,40.8  c-21.3,12.9-30.9,24.7-30.6,50.1c1,73,0.7,146.1-2.1,219.1c-24.8,11.5-42,36.7-42,65.8c0,40,32.5,72.5,72.5,72.5  s72.5-32.5,72.5-72.5c0-29.1-17.3-54.3-42.1-65.8c0.9-63.8,1.6-127.6,1.7-191.4c0.1-17.5,7.4-25.4,21.5-36.5  c8.7-6.8,15.7-12.9,21-18.8c4.7-5,11.8-7.1,18.5-5.6l45.5,10.5C405.4,488.6,410.5,466.3,424.7,450.5z M320,816.5  c0,26.3-21.3,47.5-47.5,47.5c-26.3,0-47.5-21.3-47.5-47.5c0-14.8,6.8-28.1,17.4-36.8c8.2-6.7,18.7-10.8,30.1-10.8  c11.4,0,21.9,4,30.1,10.7C313.2,788.4,320,801.7,320,816.5z" style="fill: rgb(24, 69, 234);"/>
    <path xmlns="http://www.w3.org/2000/svg" d="M487.5,350.6c-1.3-4.5-4.6-8-8.5-9.8h-0.1c-1.1-0.8-2.3-1.6-3.7-2.4c-14.6-8.7-61.7-37.4-71.6-42.9  c-21.9-12.1-36.8-14.6-58.7-1.6c-64.1,38-129.1,74.9-195.2,109.4c-11.4-7.5-25-11.8-39.6-11.8c-40,0-72.5,32.5-72.5,72.5  s32.5,72.5,72.5,72.5s72.5-32.5,72.5-72.5c0-3-0.2-5.9-0.5-8.8c56.5-31.4,112.8-62.9,169-94.9c15.2-8.7,25.7-6.3,42.3,0.5  c10.4,4.2,19.1,7.1,26.8,8.9c6.9,1.6,12.2,6.8,14.2,13.5l12.6,43.3c15.1-15.1,36.9-21.4,57.8-16.7L487.5,350.6z M110.2,511.6  c-26.3,0-47.5-21.3-47.5-47.5s21.3-47.5,47.5-47.5c5.3,0,10.5,0.9,15.3,2.5h0c18.8,6.4,32.3,24.1,32.3,45c0,1.7-0.1,3.3-0.3,5  C155,493,134.7,511.6,110.2,511.6z" style="fill: rgb(24, 69, 234);"/>
    <path xmlns="http://www.w3.org/2000/svg" d="M626.4,312.9c-0.7-25-6.3-39.1-28.6-51.3c-65.4-35.7-130.4-72.7-193.8-111.9c0.1-1.2,0.1-2.4,0.1-3.6  c0-40-32.6-72.5-72.5-72.5c-40,0-72.5,32.5-72.5,72.5s32.5,72.5,72.5,72.5c16.5,0,31.7-5.5,43.8-14.8c56,32.6,112.1,65.1,168.5,97.1  c15.2,8.6,18.5,18.9,21.3,36.7c1.7,10.8,3.5,19.5,5.8,27c2.1,6.7,0.4,13.9-4.5,19l-31.3,33.4c20.7,5.2,37.4,20.8,43.8,41.1  l42.1-44.9c2.3-2.5,3.6-5.3,4-8.4v-0.1c0.7-2.2,1-5,1-8.3C626,379.4,626.7,324.2,626.4,312.9z M350.8,189.5  c-5.9,2.6-12.4,4.1-19.3,4.1c-26.3,0-47.5-21.3-47.5-47.5c0-26.3,21.3-47.5,47.5-47.5c23.1,0,42.4,16.5,46.6,38.3  c0.6,3,0.9,6.1,0.9,9.2C379,165.4,367.4,182.1,350.8,189.5z" style="fill: rgb(24, 69, 234);"/>
  </g>
  <g transform="matrix(0.01761, 0, 0, -0.017693, 152.547363, 170.167786)" fill="#000000" stroke="none" style="">
    <path d="M283 857 l-193 -112 0 -231 0 -230 205 -117 205 -116 185 107 186 108 -1 239 c0 132 -4 243 -8 246 -14 13 -372 219 -379 218 -5 0 -95 -51 -200 -112z m378 -48 l159 -90 0 -150 c0 -82 -2 -149 -5 -149 -2 0 -12 14 -20 31 -13 24 -16 55 -13 142 l3 112 -134 72 c-74 40 -136 73 -137 73 -1 0 -57 -95 -124 -210 -67 -116 -127 -213 -132 -216 -5 -4 -14 -2 -20 4 -6 6 35 87 124 241 73 127 135 231 137 231 2 0 75 -41 162 -91z m-264 27 c-9 -14 -62 -50 -117 -81 l-100 -57 0 -164 0 -164 247 -2 c186 -2 247 -6 251 -15 3 -10 -54 -13 -262 -13 l-266 0 2 191 3 191 125 73 c69 39 127 71 129 69 2 -2 -4 -14 -12 -28z m287 -297 c75 -133 136 -242 134 -244 -2 -1 -74 -43 -160 -93 l-158 -91 -142 82 c-139 80 -142 82 -106 85 31 3 56 -7 135 -54 54 -32 102 -57 108 -57 8 0 250 128 264 139 2 2 -52 102 -121 223 -94 164 -123 223 -116 235 5 9 12 16 16 16 4 0 70 -108 146 -241z m46 83 l0 -57 -41 70 c-57 97 -57 98 -5 69 l46 -26 0 -56z m-432 40 c-18 -32 -41 -70 -50 -83 -17 -24 -17 -24 -17 27 -1 54 8 68 64 97 17 9 31 16 33 17 2 0 -12 -26 -30 -58z m261 -97 c39 -69 71 -129 71 -135 0 -6 -56 -10 -150 -10 -82 0 -150 2 -150 6 0 11 147 264 154 264 2 0 36 -56 75 -125z m31 -290 c0 -2 -21 -15 -47 -29 l-48 -24 -50 29 -50 29 98 0 c53 0 97 -2 97 -5z" style="fill: rgb(19, 73, 236);"/>
  </g>
</svg>