<?xml version="1.0" encoding="utf-8"?>
<svg viewBox="45.503 86.273 91 84.38" width="91" height="84.38" xmlns="http://www.w3.org/2000/svg">
  <g id="SvgjsG1099" featurekey="symbolFeature-0" transform="matrix(0.098517, 0, 0, 0.098517, 396.070404, 200.058044)" fill="#321abc">
    <path xmlns="http://www.w3.org/2000/svg" d="M -2866.242 -1117.376 C -2906.242 -1117.376 -2938.742 -1084.876 -2938.742 -1044.876 C -2938.742 -1017.676 -2923.642 -993.876 -2901.442 -981.476 C -2901.842 -917.476 -2902.042 -853.576 -2901.742 -789.576 C -2901.642 -772.076 -2908.842 -764.076 -2922.942 -752.876 C -2931.142 -746.276 -2937.742 -740.476 -2942.942 -734.876 C -2947.642 -729.876 -2954.742 -727.776 -2961.442 -729.376 L -3008.142 -740.176 C -3002.242 -719.776 -3007.342 -697.476 -3021.442 -681.576 L -2961.442 -667.676 C -2959.242 -667.176 -2957.142 -667.176 -2955.042 -667.476 C -2952.242 -666.376 -2948.342 -667.876 -2943.542 -670.576 C -2928.842 -679.076 -2880.642 -705.976 -2871.042 -711.876 C -2849.742 -724.876 -2840.242 -736.776 -2840.842 -762.176 C -2842.342 -833.676 -2842.642 -905.376 -2840.542 -976.876 C -2813.142 -987.276 -2793.742 -1013.776 -2793.742 -1044.676 C -2793.642 -1084.876 -2826.242 -1117.376 -2866.242 -1117.376 Z M -2840.342 -1004.976 C -2847.742 -1000.176 -2856.642 -997.276 -2866.242 -997.276 C -2880.142 -997.276 -2892.542 -1003.176 -2901.242 -1012.676 C -2909.042 -1021.176 -2913.742 -1032.476 -2913.742 -1044.776 C -2913.742 -1071.076 -2892.442 -1092.276 -2866.242 -1092.276 C -2839.942 -1092.276 -2818.742 -1070.976 -2818.742 -1044.776 C -2818.642 -1028.176 -2827.242 -1013.476 -2840.342 -1004.976 Z" style="fill: rgb(13, 93, 231);"/>
    <path xmlns="http://www.w3.org/2000/svg" d="M -2707.242 -755.076 C -2746.142 -755.076 -2778.042 -724.276 -2779.742 -685.676 C -2835.542 -654.076 -2891.242 -622.376 -2946.742 -590.176 C -2961.842 -581.376 -2972.342 -583.676 -2989.042 -590.376 C -2999.542 -594.576 -3008.342 -597.476 -3016.142 -599.176 C -3023.242 -600.676 -3028.842 -605.876 -3030.842 -612.776 L -3044.042 -657.676 C -3055.742 -645.876 -3071.642 -639.476 -3087.942 -639.476 C -3092.542 -639.476 -3097.342 -639.976 -3101.842 -641.076 L -3084.442 -581.676 C -3083.342 -577.976 -3080.942 -574.976 -3077.942 -573.076 C -3076.542 -571.076 -3073.942 -569.276 -3070.542 -567.276 C -3055.842 -558.676 -3008.542 -530.376 -2998.642 -524.976 C -2976.742 -512.976 -2961.742 -510.676 -2939.942 -523.776 C -2879.542 -560.276 -2818.342 -595.676 -2756.142 -629.076 C -2743.242 -617.276 -2726.042 -610.076 -2707.242 -610.076 C -2667.242 -610.076 -2634.742 -642.576 -2634.742 -682.576 C -2634.742 -722.576 -2667.242 -755.076 -2707.242 -755.076 Z M -2707.242 -634.976 C -2716.442 -634.976 -2725.042 -637.576 -2732.342 -642.176 C -2745.842 -650.576 -2754.842 -665.476 -2754.842 -682.576 C -2754.842 -689.576 -2753.342 -696.276 -2750.542 -702.276 C -2743.042 -718.676 -2726.442 -730.176 -2707.242 -730.176 C -2680.942 -730.176 -2659.742 -708.876 -2659.742 -682.676 C -2659.642 -656.276 -2680.942 -634.976 -2707.242 -634.976 Z" style="fill: rgb(13, 93, 231);"/>
    <path xmlns="http://www.w3.org/2000/svg" d="M -2938.342 -443.576 C -2952.242 -443.576 -2965.242 -439.676 -2976.342 -432.776 C -3031.342 -465.376 -3086.542 -497.776 -3141.942 -529.776 C -3157.042 -538.476 -3160.242 -548.776 -3162.842 -566.676 C -3164.442 -577.676 -3166.342 -586.676 -3168.642 -594.176 C -3170.742 -600.976 -3169.142 -608.376 -3164.342 -613.576 L -3131.942 -648.076 C -3152.642 -653.276 -3169.342 -668.776 -3175.842 -689.076 L -3217.842 -644.176 C -3220.242 -641.676 -3221.642 -638.576 -3221.842 -635.376 L -3221.842 -635.276 C -3222.942 -633.076 -3223.242 -629.876 -3223.242 -625.976 C -3223.342 -608.976 -3224.442 -553.776 -3224.142 -542.476 C -3223.542 -517.476 -3218.142 -503.276 -3195.942 -490.976 C -3133.142 -455.976 -3070.842 -419.976 -3009.842 -381.876 C -3010.342 -378.276 -3010.642 -374.676 -3010.642 -370.976 C -3010.642 -330.976 -2978.042 -298.476 -2938.142 -298.476 C -2898.142 -298.476 -2865.642 -330.976 -2865.642 -370.976 C -2865.642 -410.976 -2898.342 -443.576 -2938.342 -443.576 Z M -2938.342 -323.576 C -2963.442 -323.576 -2984.042 -343.076 -2985.742 -367.776 C -2985.842 -368.876 -2985.842 -369.976 -2985.842 -371.076 C -2985.842 -393.376 -2970.542 -412.076 -2949.842 -417.176 C -2946.142 -418.076 -2942.342 -418.576 -2938.342 -418.576 C -2912.042 -418.576 -2890.842 -397.276 -2890.842 -371.076 C -2890.742 -344.776 -2912.042 -323.576 -2938.342 -323.576 Z" style="fill: rgb(13, 93, 231);"/>
    <path xmlns="http://www.w3.org/2000/svg" d="M -3171.342 -778.076 L -3231.442 -792.076 C -3235.142 -792.876 -3238.842 -792.376 -3241.942 -790.776 C -3243.842 -790.276 -3246.142 -789.176 -3248.642 -787.776 C -3263.442 -779.376 -3311.842 -752.876 -3321.542 -746.976 C -3342.842 -734.076 -3352.442 -722.276 -3352.142 -696.876 C -3351.142 -623.876 -3351.442 -550.776 -3354.242 -477.776 C -3379.042 -466.276 -3396.242 -441.076 -3396.242 -411.976 C -3396.242 -371.976 -3363.742 -339.476 -3323.742 -339.476 C -3283.742 -339.476 -3251.242 -371.976 -3251.242 -411.976 C -3251.242 -441.076 -3268.542 -466.276 -3293.342 -477.776 C -3292.442 -541.576 -3291.742 -605.376 -3291.642 -669.176 C -3291.542 -686.676 -3284.242 -694.576 -3270.142 -705.676 C -3261.442 -712.476 -3254.442 -718.576 -3249.142 -724.476 C -3244.442 -729.476 -3237.342 -731.576 -3230.642 -730.076 L -3185.142 -719.576 C -3190.642 -739.976 -3185.542 -762.276 -3171.342 -778.076 Z M -3276.042 -412.076 C -3276.042 -385.776 -3297.342 -364.576 -3323.542 -364.576 C -3349.842 -364.576 -3371.042 -385.876 -3371.042 -412.076 C -3371.042 -426.876 -3364.242 -440.176 -3353.642 -448.876 C -3345.442 -455.576 -3334.942 -459.676 -3323.542 -459.676 C -3312.142 -459.676 -3301.642 -455.676 -3293.442 -448.976 C -3282.842 -440.176 -3276.042 -426.876 -3276.042 -412.076 Z" style="fill: rgb(13, 93, 231);"/>
    <path xmlns="http://www.w3.org/2000/svg" d="M -3108.542 -877.976 C -3109.842 -882.476 -3113.142 -885.976 -3117.042 -887.776 L -3117.142 -887.776 C -3118.242 -888.576 -3119.442 -889.376 -3120.842 -890.176 C -3135.442 -898.876 -3182.542 -927.576 -3192.442 -933.076 C -3214.342 -945.176 -3229.242 -947.676 -3251.142 -934.676 C -3315.242 -896.676 -3380.242 -859.776 -3446.342 -825.276 C -3457.742 -832.776 -3471.342 -837.076 -3485.942 -837.076 C -3525.942 -837.076 -3558.442 -804.576 -3558.442 -764.576 C -3558.442 -724.576 -3525.942 -692.076 -3485.942 -692.076 C -3445.942 -692.076 -3413.442 -724.576 -3413.442 -764.576 C -3413.442 -767.576 -3413.642 -770.476 -3413.942 -773.376 C -3357.442 -804.776 -3301.142 -836.276 -3244.942 -868.276 C -3229.742 -876.976 -3219.242 -874.576 -3202.642 -867.776 C -3192.242 -863.576 -3183.542 -860.676 -3175.842 -858.876 C -3168.942 -857.276 -3163.642 -852.076 -3161.642 -845.376 L -3149.042 -802.076 C -3133.942 -817.176 -3112.142 -823.476 -3091.242 -818.776 L -3108.542 -877.976 Z M -3485.842 -716.976 C -3512.142 -716.976 -3533.342 -738.276 -3533.342 -764.476 C -3533.342 -790.676 -3512.042 -811.976 -3485.842 -811.976 C -3480.542 -811.976 -3475.342 -811.076 -3470.542 -809.476 C -3451.742 -803.076 -3438.242 -785.376 -3438.242 -764.476 C -3438.242 -762.776 -3438.342 -761.176 -3438.542 -759.476 C -3441.042 -735.576 -3461.342 -716.976 -3485.842 -716.976 Z" style="fill: rgb(13, 93, 231);"/>
    <path xmlns="http://www.w3.org/2000/svg" d="M -2969.642 -915.676 C -2970.342 -940.676 -2975.942 -954.776 -2998.242 -966.976 C -3063.642 -1002.676 -3128.642 -1039.676 -3192.042 -1078.876 C -3191.942 -1080.076 -3191.942 -1081.276 -3191.942 -1082.476 C -3191.942 -1122.476 -3224.542 -1154.976 -3264.442 -1154.976 C -3304.442 -1154.976 -3336.942 -1122.476 -3336.942 -1082.476 C -3336.942 -1042.476 -3304.442 -1009.976 -3264.442 -1009.976 C -3247.942 -1009.976 -3232.742 -1015.476 -3220.642 -1024.776 C -3164.642 -992.176 -3108.542 -959.676 -3052.142 -927.676 C -3036.942 -919.076 -3033.642 -908.776 -3030.842 -890.976 C -3029.142 -880.176 -3027.342 -871.476 -3025.042 -863.976 C -3022.942 -857.276 -3024.642 -850.076 -3029.542 -844.976 L -3060.842 -811.576 C -3040.142 -806.376 -3023.442 -790.776 -3017.042 -770.476 L -2974.942 -815.376 C -2972.642 -817.876 -2971.342 -820.676 -2970.942 -823.776 L -2970.942 -823.876 C -2970.242 -826.076 -2969.942 -828.876 -2969.942 -832.176 C -2970.042 -849.176 -2969.342 -904.376 -2969.642 -915.676 Z M -3245.242 -1039.076 C -3251.142 -1036.476 -3257.642 -1034.976 -3264.542 -1034.976 C -3290.842 -1034.976 -3312.042 -1056.276 -3312.042 -1082.476 C -3312.042 -1108.776 -3290.742 -1129.976 -3264.542 -1129.976 C -3241.442 -1129.976 -3222.142 -1113.476 -3217.942 -1091.676 C -3217.342 -1088.676 -3217.042 -1085.576 -3217.042 -1082.476 C -3217.042 -1063.176 -3228.642 -1046.476 -3245.242 -1039.076 Z" style="fill: rgb(13, 93, 231);"/>
  </g>
  <path d="M 87.068 122.364 L 83.501 124.305 L 83.501 128.31 L 83.501 132.297 L 87.289 134.326 L 91.078 136.336 L 94.496 134.482 L 97.934 132.609 L 97.915 128.466 C 97.915 126.177 97.841 124.254 97.767 124.201 C 97.508 123.976 90.893 120.403 90.763 120.422 C 90.672 120.422 89.008 121.305 87.068 122.364 Z M 94.053 123.196 L 96.991 124.755 L 96.991 127.357 C 96.991 128.778 96.954 129.94 96.898 129.94 C 96.862 129.94 96.677 129.697 96.528 129.402 C 96.289 128.986 96.232 128.448 96.289 126.941 L 96.344 124.999 L 93.869 123.75 C 92.501 123.056 91.355 122.485 91.336 122.485 C 91.318 122.485 90.283 124.132 89.045 126.126 C 87.806 128.137 86.698 129.818 86.607 129.87 C 86.513 129.94 86.347 129.905 86.237 129.801 C 86.125 129.697 86.883 128.293 88.528 125.623 C 89.876 123.421 91.022 121.618 91.059 121.618 C 91.096 121.618 92.446 122.329 94.053 123.196 Z M 89.175 122.728 C 89.008 122.97 88.029 123.594 87.012 124.132 L 85.164 125.12 L 85.164 127.964 L 85.164 130.806 L 89.729 130.841 C 93.166 130.876 94.293 130.945 94.367 131.101 C 94.422 131.276 93.369 131.327 89.526 131.327 L 84.609 131.327 L 84.647 128.016 L 84.703 124.703 L 87.012 123.438 C 88.288 122.761 89.359 122.207 89.396 122.242 C 89.434 122.277 89.321 122.485 89.175 122.728 Z M 94.479 127.877 C 95.864 130.183 96.991 132.072 96.954 132.106 C 96.917 132.123 95.587 132.853 93.997 133.719 L 91.078 135.297 L 88.453 133.876 C 85.885 132.488 85.83 132.454 86.495 132.401 C 87.068 132.35 87.529 132.522 88.989 133.339 C 89.987 133.893 90.874 134.326 90.986 134.326 C 91.133 134.326 95.605 132.106 95.864 131.917 C 95.901 131.881 94.903 130.148 93.629 128.049 C 91.89 125.207 91.355 124.183 91.484 123.976 C 91.576 123.82 91.706 123.698 91.78 123.698 C 91.853 123.698 93.073 125.57 94.479 127.877 Z M 95.328 126.438 L 95.328 127.426 L 94.57 126.213 C 93.518 124.53 93.518 124.513 94.479 125.016 L 95.328 125.466 L 95.328 126.438 Z M 87.345 125.744 C 87.012 126.3 86.587 126.958 86.421 127.183 C 86.107 127.599 86.107 127.599 86.107 126.714 C 86.088 125.778 86.255 125.536 87.289 125.033 C 87.604 124.878 87.862 124.755 87.9 124.74 C 87.936 124.74 87.678 125.19 87.345 125.744 Z M 92.169 127.426 C 92.888 128.623 93.48 129.663 93.48 129.766 C 93.48 129.87 92.446 129.94 90.709 129.94 C 89.193 129.94 87.936 129.905 87.936 129.836 C 87.936 129.645 90.653 125.26 90.782 125.26 C 90.819 125.26 91.448 126.23 92.169 127.426 Z M 92.742 132.454 C 92.742 132.488 92.353 132.715 91.871 132.957 L 90.986 133.373 L 90.062 132.87 L 89.138 132.367 L 90.949 132.367 C 91.927 132.367 92.742 132.401 92.742 132.454 Z" style="fill: rgb(40, 71, 213);"/>
  <path d="M 112.105 93.86 L 110.459 94.873 L 110.459 96.963 L 110.459 99.043 L 112.207 100.101 L 113.956 101.15 L 115.534 100.183 L 117.12 99.206 L 117.112 97.044 C 117.112 95.85 117.078 94.846 117.043 94.819 C 116.924 94.701 113.871 92.837 113.811 92.847 C 113.769 92.847 113.001 93.308 112.105 93.86 Z M 115.329 94.294 L 116.685 95.108 L 116.685 96.465 C 116.685 97.207 116.668 97.813 116.642 97.813 C 116.626 97.813 116.54 97.686 116.472 97.533 C 116.361 97.316 116.335 97.035 116.361 96.248 L 116.387 95.235 L 115.244 94.583 C 114.613 94.221 114.084 93.923 114.075 93.923 C 114.067 93.923 113.589 94.783 113.018 95.823 C 112.446 96.873 111.934 97.75 111.892 97.776 C 111.849 97.813 111.772 97.795 111.722 97.741 C 111.67 97.686 112.02 96.954 112.779 95.561 C 113.401 94.412 113.93 93.471 113.947 93.471 C 113.964 93.471 114.587 93.842 115.329 94.294 Z M 113.078 94.05 C 113.001 94.177 112.549 94.502 112.08 94.783 L 111.226 95.298 L 111.226 96.782 L 111.226 98.265 L 113.333 98.283 C 114.92 98.301 115.44 98.338 115.474 98.419 C 115.5 98.51 115.013 98.537 113.24 98.537 L 110.971 98.537 L 110.988 96.809 L 111.013 95.081 L 112.08 94.421 C 112.668 94.068 113.163 93.778 113.18 93.797 C 113.197 93.815 113.146 93.923 113.078 94.05 Z M 115.526 96.737 C 116.165 97.94 116.685 98.926 116.668 98.943 C 116.651 98.952 116.037 99.333 115.303 99.785 L 113.956 100.608 L 112.745 99.867 C 111.559 99.143 111.534 99.125 111.841 99.097 C 112.105 99.07 112.318 99.16 112.992 99.586 C 113.453 99.875 113.862 100.101 113.914 100.101 C 113.982 100.101 116.046 98.943 116.165 98.845 C 116.182 98.826 115.721 97.921 115.133 96.827 C 114.331 95.344 114.084 94.809 114.144 94.701 C 114.186 94.62 114.246 94.557 114.28 94.557 C 114.314 94.557 114.877 95.533 115.526 96.737 Z M 115.918 95.986 L 115.918 96.502 L 115.568 95.868 C 115.082 94.991 115.082 94.982 115.526 95.244 L 115.918 95.479 L 115.918 95.986 Z M 112.233 95.624 C 112.08 95.914 111.883 96.257 111.807 96.375 C 111.662 96.592 111.662 96.592 111.662 96.13 C 111.653 95.642 111.73 95.515 112.207 95.253 C 112.352 95.172 112.472 95.108 112.489 95.1 C 112.506 95.1 112.387 95.335 112.233 95.624 Z M 114.46 96.502 C 114.792 97.126 115.065 97.669 115.065 97.722 C 115.065 97.776 114.587 97.813 113.786 97.813 C 113.086 97.813 112.506 97.795 112.506 97.759 C 112.506 97.659 113.76 95.371 113.819 95.371 C 113.837 95.371 114.127 95.877 114.46 96.502 Z M 114.724 99.125 C 114.724 99.143 114.545 99.261 114.322 99.387 L 113.914 99.604 L 113.487 99.342 L 113.061 99.079 L 113.897 99.079 C 114.348 99.079 114.724 99.097 114.724 99.125 Z" style="fill: rgb(40, 71, 213);"/>
  <path d="M 127.608 129.606 L 125.962 130.619 L 125.962 132.709 L 125.962 134.789 L 127.71 135.847 L 129.459 136.896 L 131.037 135.929 L 132.623 134.952 L 132.615 132.79 C 132.615 131.596 132.581 130.592 132.546 130.565 C 132.427 130.447 129.374 128.583 129.314 128.593 C 129.272 128.593 128.504 129.054 127.608 129.606 Z M 130.832 130.04 L 132.188 130.854 L 132.188 132.211 C 132.188 132.953 132.171 133.559 132.145 133.559 C 132.129 133.559 132.043 133.432 131.975 133.279 C 131.864 133.062 131.838 132.781 131.864 131.994 L 131.89 130.981 L 130.747 130.329 C 130.116 129.967 129.587 129.669 129.578 129.669 C 129.57 129.669 129.092 130.529 128.521 131.569 C 127.949 132.619 127.437 133.496 127.395 133.522 C 127.352 133.559 127.275 133.541 127.225 133.487 C 127.173 133.432 127.523 132.7 128.282 131.307 C 128.904 130.158 129.433 129.217 129.45 129.217 C 129.467 129.217 130.09 129.588 130.832 130.04 Z M 128.581 129.796 C 128.504 129.923 128.052 130.248 127.583 130.529 L 126.729 131.044 L 126.729 132.528 L 126.729 134.011 L 128.836 134.029 C 130.423 134.047 130.943 134.084 130.977 134.165 C 131.003 134.256 130.516 134.283 128.743 134.283 L 126.474 134.283 L 126.491 132.555 L 126.516 130.827 L 127.583 130.167 C 128.171 129.814 128.666 129.524 128.683 129.543 C 128.7 129.561 128.649 129.669 128.581 129.796 Z M 131.029 132.483 C 131.668 133.686 132.188 134.672 132.171 134.689 C 132.154 134.698 131.54 135.079 130.806 135.531 L 129.459 136.354 L 128.248 135.613 C 127.062 134.889 127.037 134.871 127.344 134.843 C 127.608 134.816 127.821 134.906 128.495 135.332 C 128.956 135.621 129.365 135.847 129.417 135.847 C 129.485 135.847 131.549 134.689 131.668 134.591 C 131.685 134.572 131.224 133.667 130.636 132.573 C 129.834 131.09 129.587 130.555 129.647 130.447 C 129.689 130.366 129.749 130.303 129.783 130.303 C 129.817 130.303 130.38 131.279 131.029 132.483 Z M 131.421 131.732 L 131.421 132.248 L 131.071 131.614 C 130.585 130.737 130.585 130.728 131.029 130.99 L 131.421 131.225 L 131.421 131.732 Z M 127.736 131.37 C 127.583 131.66 127.386 132.003 127.31 132.121 C 127.165 132.338 127.165 132.338 127.165 131.876 C 127.156 131.388 127.233 131.261 127.71 130.999 C 127.855 130.918 127.975 130.854 127.992 130.846 C 128.009 130.846 127.89 131.081 127.736 131.37 Z M 129.963 132.248 C 130.295 132.872 130.568 133.415 130.568 133.468 C 130.568 133.522 130.09 133.559 129.289 133.559 C 128.589 133.559 128.009 133.541 128.009 133.505 C 128.009 133.405 129.263 131.117 129.322 131.117 C 129.34 131.117 129.63 131.623 129.963 132.248 Z M 130.227 134.871 C 130.227 134.889 130.048 135.007 129.825 135.133 L 129.417 135.35 L 128.99 135.088 L 128.564 134.825 L 129.4 134.825 C 129.851 134.825 130.227 134.843 130.227 134.871 Z" style="fill: rgb(40, 71, 213);"/>
  <path d="M 104.851 160.428 L 103.205 161.441 L 103.205 163.531 L 103.205 165.611 L 104.953 166.669 L 106.702 167.718 L 108.28 166.751 L 109.866 165.774 L 109.858 163.612 C 109.858 162.418 109.824 161.414 109.789 161.387 C 109.67 161.269 106.617 159.405 106.557 159.415 C 106.515 159.415 105.747 159.876 104.851 160.428 Z M 108.075 160.862 L 109.431 161.676 L 109.431 163.033 C 109.431 163.775 109.414 164.381 109.388 164.381 C 109.372 164.381 109.286 164.254 109.218 164.101 C 109.107 163.884 109.081 163.603 109.107 162.816 L 109.133 161.803 L 107.99 161.151 C 107.359 160.789 106.83 160.491 106.821 160.491 C 106.813 160.491 106.335 161.351 105.764 162.391 C 105.192 163.441 104.68 164.318 104.638 164.344 C 104.595 164.381 104.518 164.363 104.468 164.309 C 104.416 164.254 104.766 163.522 105.525 162.129 C 106.147 160.98 106.676 160.039 106.693 160.039 C 106.71 160.039 107.333 160.41 108.075 160.862 Z M 105.824 160.618 C 105.747 160.745 105.295 161.07 104.826 161.351 L 103.972 161.866 L 103.972 163.35 L 103.972 164.833 L 106.079 164.851 C 107.666 164.869 108.186 164.906 108.22 164.987 C 108.246 165.078 107.759 165.105 105.986 165.105 L 103.717 165.105 L 103.734 163.377 L 103.759 161.649 L 104.826 160.989 C 105.414 160.636 105.909 160.346 105.926 160.365 C 105.943 160.383 105.892 160.491 105.824 160.618 Z M 108.272 163.305 C 108.911 164.508 109.431 165.494 109.414 165.511 C 109.397 165.52 108.783 165.901 108.049 166.353 L 106.702 167.176 L 105.491 166.435 C 104.305 165.711 104.28 165.693 104.587 165.665 C 104.851 165.638 105.064 165.728 105.738 166.154 C 106.199 166.443 106.608 166.669 106.66 166.669 C 106.728 166.669 108.792 165.511 108.911 165.413 C 108.928 165.394 108.467 164.489 107.879 163.395 C 107.077 161.912 106.83 161.377 106.89 161.269 C 106.932 161.188 106.992 161.125 107.026 161.125 C 107.06 161.125 107.623 162.101 108.272 163.305 Z M 108.664 162.554 L 108.664 163.07 L 108.314 162.436 C 107.828 161.559 107.828 161.55 108.272 161.812 L 108.664 162.047 L 108.664 162.554 Z M 104.979 162.192 C 104.826 162.482 104.629 162.825 104.553 162.943 C 104.408 163.16 104.408 163.16 104.408 162.698 C 104.399 162.21 104.476 162.083 104.953 161.821 C 105.098 161.74 105.218 161.676 105.235 161.668 C 105.252 161.668 105.133 161.903 104.979 162.192 Z M 107.206 163.07 C 107.538 163.694 107.811 164.237 107.811 164.29 C 107.811 164.344 107.333 164.381 106.532 164.381 C 105.832 164.381 105.252 164.363 105.252 164.327 C 105.252 164.227 106.506 161.939 106.565 161.939 C 106.583 161.939 106.873 162.445 107.206 163.07 Z M 107.47 165.693 C 107.47 165.711 107.291 165.829 107.068 165.955 L 106.66 166.172 L 106.233 165.91 L 105.807 165.647 L 106.643 165.647 C 107.094 165.647 107.47 165.665 107.47 165.693 Z" style="fill: rgb(40, 71, 213);"/>
  <path d="M 66.896 156.411 L 65.25 157.424 L 65.25 159.514 L 65.25 161.594 L 66.998 162.652 L 68.747 163.701 L 70.325 162.734 L 71.911 161.757 L 71.903 159.595 C 71.903 158.401 71.869 157.397 71.834 157.37 C 71.715 157.252 68.662 155.388 68.602 155.398 C 68.56 155.398 67.792 155.859 66.896 156.411 Z M 70.12 156.845 L 71.476 157.659 L 71.476 159.016 C 71.476 159.758 71.459 160.364 71.433 160.364 C 71.417 160.364 71.331 160.237 71.263 160.084 C 71.152 159.867 71.126 159.586 71.152 158.799 L 71.178 157.786 L 70.035 157.134 C 69.404 156.772 68.875 156.474 68.866 156.474 C 68.858 156.474 68.38 157.334 67.809 158.374 C 67.237 159.424 66.725 160.301 66.683 160.327 C 66.64 160.364 66.563 160.346 66.513 160.292 C 66.461 160.237 66.811 159.505 67.57 158.112 C 68.192 156.963 68.721 156.022 68.738 156.022 C 68.755 156.022 69.378 156.393 70.12 156.845 Z M 67.869 156.601 C 67.792 156.728 67.34 157.053 66.871 157.334 L 66.017 157.849 L 66.017 159.333 L 66.017 160.816 L 68.124 160.834 C 69.711 160.852 70.231 160.889 70.265 160.97 C 70.291 161.061 69.804 161.088 68.031 161.088 L 65.762 161.088 L 65.779 159.36 L 65.804 157.632 L 66.871 156.972 C 67.459 156.619 67.954 156.329 67.971 156.348 C 67.988 156.366 67.937 156.474 67.869 156.601 Z M 70.317 159.288 C 70.956 160.491 71.476 161.477 71.459 161.494 C 71.442 161.503 70.828 161.884 70.094 162.336 L 68.747 163.159 L 67.536 162.418 C 66.35 161.694 66.325 161.676 66.632 161.648 C 66.896 161.621 67.109 161.711 67.783 162.137 C 68.244 162.426 68.653 162.652 68.705 162.652 C 68.773 162.652 70.837 161.494 70.956 161.396 C 70.973 161.377 70.512 160.472 69.924 159.378 C 69.122 157.895 68.875 157.36 68.935 157.252 C 68.977 157.171 69.037 157.108 69.071 157.108 C 69.105 157.108 69.668 158.084 70.317 159.288 Z M 70.709 158.537 L 70.709 159.053 L 70.359 158.419 C 69.873 157.542 69.873 157.533 70.317 157.795 L 70.709 158.03 L 70.709 158.537 Z M 67.024 158.175 C 66.871 158.465 66.674 158.808 66.598 158.926 C 66.453 159.143 66.453 159.143 66.453 158.681 C 66.444 158.193 66.521 158.066 66.998 157.804 C 67.143 157.723 67.263 157.659 67.28 157.651 C 67.297 157.651 67.178 157.886 67.024 158.175 Z M 69.251 159.053 C 69.583 159.677 69.856 160.22 69.856 160.273 C 69.856 160.327 69.378 160.364 68.577 160.364 C 67.877 160.364 67.297 160.346 67.297 160.31 C 67.297 160.21 68.551 157.922 68.61 157.922 C 68.628 157.922 68.918 158.428 69.251 159.053 Z M 69.515 161.676 C 69.515 161.694 69.336 161.812 69.113 161.938 L 68.705 162.155 L 68.278 161.893 L 67.852 161.63 L 68.688 161.63 C 69.139 161.63 69.515 161.648 69.515 161.676 Z" style="fill: rgb(40, 71, 213);"/>
  <path d="M 50.791 121.65 L 49.145 122.663 L 49.145 124.753 L 49.145 126.833 L 50.893 127.891 L 52.642 128.94 L 54.22 127.973 L 55.806 126.996 L 55.798 124.834 C 55.798 123.64 55.764 122.636 55.729 122.609 C 55.61 122.491 52.557 120.627 52.497 120.637 C 52.455 120.637 51.687 121.098 50.791 121.65 Z M 54.015 122.084 L 55.371 122.898 L 55.371 124.255 C 55.371 124.997 55.354 125.603 55.328 125.603 C 55.312 125.603 55.226 125.476 55.158 125.323 C 55.047 125.106 55.021 124.825 55.047 124.038 L 55.073 123.025 L 53.93 122.373 C 53.299 122.011 52.77 121.713 52.761 121.713 C 52.753 121.713 52.275 122.573 51.704 123.613 C 51.132 124.663 50.62 125.54 50.578 125.566 C 50.535 125.603 50.458 125.585 50.408 125.531 C 50.356 125.476 50.706 124.744 51.465 123.351 C 52.087 122.202 52.616 121.261 52.633 121.261 C 52.65 121.261 53.273 121.632 54.015 122.084 Z M 51.764 121.84 C 51.687 121.967 51.235 122.292 50.766 122.573 L 49.912 123.088 L 49.912 124.572 L 49.912 126.055 L 52.019 126.073 C 53.606 126.091 54.126 126.128 54.16 126.209 C 54.186 126.3 53.699 126.327 51.926 126.327 L 49.657 126.327 L 49.674 124.599 L 49.699 122.871 L 50.766 122.211 C 51.354 121.858 51.849 121.568 51.866 121.587 C 51.883 121.605 51.832 121.713 51.764 121.84 Z M 54.212 124.527 C 54.851 125.73 55.371 126.716 55.354 126.733 C 55.337 126.742 54.723 127.123 53.989 127.575 L 52.642 128.398 L 51.431 127.657 C 50.245 126.933 50.22 126.915 50.527 126.887 C 50.791 126.86 51.004 126.95 51.678 127.376 C 52.139 127.665 52.548 127.891 52.6 127.891 C 52.668 127.891 54.732 126.733 54.851 126.635 C 54.868 126.616 54.407 125.711 53.819 124.617 C 53.017 123.134 52.77 122.599 52.83 122.491 C 52.872 122.41 52.932 122.347 52.966 122.347 C 53 122.347 53.563 123.323 54.212 124.527 Z M 54.604 123.776 L 54.604 124.292 L 54.254 123.658 C 53.768 122.781 53.768 122.772 54.212 123.034 L 54.604 123.269 L 54.604 123.776 Z M 50.919 123.414 C 50.766 123.704 50.569 124.047 50.493 124.165 C 50.348 124.382 50.348 124.382 50.348 123.92 C 50.339 123.432 50.416 123.305 50.893 123.043 C 51.038 122.962 51.158 122.898 51.175 122.89 C 51.192 122.89 51.073 123.125 50.919 123.414 Z M 53.146 124.292 C 53.478 124.916 53.751 125.459 53.751 125.512 C 53.751 125.566 53.273 125.603 52.472 125.603 C 51.772 125.603 51.192 125.585 51.192 125.549 C 51.192 125.449 52.446 123.161 52.505 123.161 C 52.523 123.161 52.813 123.667 53.146 124.292 Z M 53.41 126.915 C 53.41 126.933 53.231 127.051 53.008 127.177 L 52.6 127.394 L 52.173 127.132 L 51.747 126.869 L 52.583 126.869 C 53.034 126.869 53.41 126.887 53.41 126.915 Z" style="fill: rgb(40, 71, 213);"/>
  <path d="M 72.545 90.197 L 70.899 91.21 L 70.899 93.3 L 70.899 95.38 L 72.647 96.438 L 74.396 97.487 L 75.974 96.52 L 77.56 95.543 L 77.552 93.381 C 77.552 92.187 77.518 91.183 77.483 91.156 C 77.364 91.038 74.311 89.174 74.251 89.184 C 74.209 89.184 73.441 89.645 72.545 90.197 Z M 75.769 90.631 L 77.125 91.445 L 77.125 92.802 C 77.125 93.544 77.108 94.15 77.082 94.15 C 77.066 94.15 76.98 94.023 76.912 93.87 C 76.801 93.653 76.775 93.372 76.801 92.585 L 76.827 91.572 L 75.684 90.92 C 75.053 90.558 74.524 90.26 74.515 90.26 C 74.507 90.26 74.029 91.12 73.458 92.16 C 72.886 93.21 72.374 94.087 72.332 94.113 C 72.289 94.15 72.212 94.132 72.162 94.078 C 72.11 94.023 72.46 93.291 73.219 91.898 C 73.841 90.749 74.37 89.808 74.387 89.808 C 74.404 89.808 75.027 90.179 75.769 90.631 Z M 73.518 90.387 C 73.441 90.514 72.989 90.839 72.52 91.12 L 71.666 91.635 L 71.666 93.119 L 71.666 94.602 L 73.773 94.62 C 75.36 94.638 75.88 94.675 75.914 94.756 C 75.94 94.847 75.453 94.874 73.68 94.874 L 71.411 94.874 L 71.428 93.146 L 71.453 91.418 L 72.52 90.758 C 73.108 90.405 73.603 90.115 73.62 90.134 C 73.637 90.152 73.586 90.26 73.518 90.387 Z M 75.966 93.074 C 76.605 94.277 77.125 95.263 77.108 95.28 C 77.091 95.289 76.477 95.67 75.743 96.122 L 74.396 96.945 L 73.185 96.204 C 71.999 95.48 71.974 95.462 72.281 95.434 C 72.545 95.407 72.758 95.497 73.432 95.923 C 73.893 96.212 74.302 96.438 74.354 96.438 C 74.422 96.438 76.486 95.28 76.605 95.182 C 76.622 95.163 76.161 94.258 75.573 93.164 C 74.771 91.681 74.524 91.146 74.584 91.038 C 74.626 90.957 74.686 90.894 74.72 90.894 C 74.754 90.894 75.317 91.87 75.966 93.074 Z M 76.358 92.323 L 76.358 92.839 L 76.008 92.205 C 75.522 91.328 75.522 91.319 75.966 91.581 L 76.358 91.816 L 76.358 92.323 Z M 72.673 91.961 C 72.52 92.251 72.323 92.594 72.247 92.712 C 72.102 92.929 72.102 92.929 72.102 92.467 C 72.093 91.979 72.17 91.852 72.647 91.59 C 72.792 91.509 72.912 91.445 72.929 91.437 C 72.946 91.437 72.827 91.672 72.673 91.961 Z M 74.9 92.839 C 75.232 93.463 75.505 94.006 75.505 94.059 C 75.505 94.113 75.027 94.15 74.226 94.15 C 73.526 94.15 72.946 94.132 72.946 94.096 C 72.946 93.996 74.2 91.708 74.259 91.708 C 74.277 91.708 74.567 92.214 74.9 92.839 Z M 75.164 95.462 C 75.164 95.48 74.985 95.598 74.762 95.724 L 74.354 95.941 L 73.927 95.679 L 73.501 95.416 L 74.337 95.416 C 74.788 95.416 75.164 95.434 75.164 95.462 Z" style="fill: rgb(40, 71, 213);"/>
</svg>