<?xml version="1.0" encoding="utf-8"?>
<svg viewBox="115.612 110.41 91.227 102.807" width="91.227" height="102.807" xmlns="http://www.w3.org/2000/svg">
  <g id="SvgjsG1099" featurekey="symbolFeature-0" transform="matrix(0.098517, 0, 0, 0.098517, 112.133835, 112.204361)" fill="#321abc">
    <g xmlns="http://www.w3.org/2000/svg">
      <path d="M 660.732 94.602 C 661.932 106.702 659.332 116.902 649.332 122.502 C 641.932 126.702 634.632 123.202 627.832 118.402 C 622.932 115.002 618.032 111.602 612.832 108.602 C 565.332 81.102 517.632 51.302 470.232 23.802 C 447.432 10.602 448.832 11.202 468.732 -3.898 C 495.932 -24.698 517.232 -21.098 547.432 -4.198 C 577.032 12.402 599.132 24.902 625.732 40.902 C 647.932 52.102 659.532 64.802 660.732 94.602 Z" style="fill: rgb(24, 69, 234);"/>
      <path d="M 926.215 442.513 C 916.315 449.613 906.115 452.413 896.315 446.513 C 889.015 442.113 888.415 434.013 889.115 425.813 C 889.615 419.813 890.115 413.913 890.115 407.913 C 890.315 353.013 892.415 296.813 892.715 242.113 C 892.815 215.813 893.015 217.313 916.015 227.013 C 947.615 240.313 955.115 260.513 955.415 295.113 C 955.815 329.013 956.015 354.413 955.215 385.413 C 956.715 410.313 951.515 426.613 926.215 442.513 Z" style="fill: rgb(24, 69, 234);"/>
      <path d="M 767.633 827.84 C 756.633 822.74 749.133 815.34 749.333 803.94 C 749.533 795.44 756.233 790.84 763.633 787.44 C 769.033 784.94 774.433 782.34 779.633 779.44 C 827.333 752.24 877.133 726.14 924.733 699.14 C 947.633 686.14 946.433 687.04 949.433 711.74 C 953.633 745.74 941.683 765.837 910.033 779.84 C 869.515 797.767 825.394 811.987 831.633 824.64 C 810.733 838.24 793.933 841.84 767.633 827.84 Z" style="fill: rgb(24, 69, 234);"/>
      <path d="M 331.508 911.367 C 330.408 899.267 333.108 889.067 343.108 883.567 C 350.608 879.467 357.808 882.967 364.608 887.767 C 369.508 891.267 374.408 894.567 379.508 897.667 C 426.808 925.467 474.308 955.667 521.408 983.567 C 544.108 996.967 542.708 996.367 522.708 1011.267 C 495.308 1031.867 474.108 1028.167 444.008 1010.967 C 414.508 994.167 392.508 981.567 366.108 965.267 C 344.008 953.967 332.508 941.167 331.508 911.367 Z" style="fill: rgb(24, 69, 234);"/>
      <path d="M 65.644 566.489 C 75.544 559.489 85.744 556.789 95.544 562.689 C 102.844 567.089 103.344 575.189 102.544 583.389 C 101.944 589.389 101.444 595.289 101.444 601.289 C 100.844 656.189 98.344 712.389 97.644 767.089 C 97.344 793.389 97.144 791.889 74.244 782.089 C 42.744 768.589 35.444 748.289 35.344 713.689 C 35.244 679.789 35.244 654.389 36.144 623.389 C 34.944 598.589 40.344 582.189 65.644 566.489 Z" style="fill: rgb(24, 69, 234);"/>
      <path d="M 222.273 168.917 C 233.273 174.017 240.673 181.517 240.373 193.017 C 240.173 201.517 233.373 206.017 225.873 209.417 C 220.473 211.917 215.073 214.417 209.873 217.317 C 161.973 244.117 111.973 269.917 64.173 296.517 C 41.173 309.317 42.473 308.417 39.573 283.717 C 35.673 249.717 49.573 233.217 79.473 215.917 C 108.873 198.917 130.873 186.317 158.273 171.717 C 179.173 158.217 196.073 154.717 222.273 168.917 Z" style="fill: rgb(24, 69, 234);"/>
    </g>
    <path xmlns="http://www.w3.org/2000/svg" d="M 729.8 111.2 C 689.8 111.2 657.3 143.7 657.3 183.7 C 657.3 210.9 672.4 234.7 694.6 247.1 C 694.2 311.1 694 375 694.3 439 C 694.4 456.5 687.2 464.5 673.1 475.7 C 664.9 482.3 658.3 488.1 653.1 493.7 C 648.4 498.7 641.3 500.8 634.6 499.2 L 634.6 560.9 C 636.8 561.4 638.9 561.4 641 561.1 C 643.8 562.2 647.7 560.7 652.5 558 C 667.2 549.5 715.4 522.6 725 516.7 C 746.3 503.7 755.8 491.8 755.2 466.4 C 753.7 394.9 753.4 323.2 755.5 251.7 C 782.9 241.3 802.3 214.8 802.3 183.9 C 802.4 143.7 769.8 111.2 729.8 111.2 Z M 755.7 223.6 C 748.3 228.4 739.4 231.3 729.8 231.3 C 715.9 231.3 703.5 225.4 694.8 215.9 C 687 207.4 682.3 196.1 682.3 183.8 C 682.3 157.5 703.6 136.3 729.8 136.3 C 756.1 136.3 777.3 157.6 777.3 183.8 C 777.4 200.4 768.8 215.1 755.7 223.6 Z" style="fill: rgb(24, 69, 234);"/>
    <path xmlns="http://www.w3.org/2000/svg" d="M 888.8 473.5 C 849.9 473.5 818 504.3 816.3 542.9 C 760.5 574.5 704.8 606.2 649.3 638.4 C 634.2 647.2 623.7 644.9 607 638.2 C 596.5 634 587.7 631.1 579.9 629.4 C 572.8 627.9 567.2 622.7 565.2 615.8 L 511.6 646.9 C 512.7 650.6 515.1 653.6 518.1 655.5 C 519.5 657.5 522.1 659.3 525.5 661.3 C 540.2 669.9 587.5 698.2 597.4 703.6 C 619.3 715.6 634.3 717.9 656.1 704.8 C 716.5 668.3 777.7 632.9 839.9 599.5 C 852.8 611.3 870 618.5 888.8 618.5 C 928.8 618.5 961.3 586 961.3 546 C 961.3 506 928.8 473.5 888.8 473.5 Z M 888.8 593.6 C 879.6 593.6 871 591 863.7 586.4 C 850.2 578 841.2 563.1 841.2 546 C 841.2 539 842.7 532.3 845.5 526.3 C 853 509.9 869.6 498.4 888.8 498.4 C 915.1 498.4 936.3 519.7 936.3 545.9 C 936.4 572.3 915.1 593.6 888.8 593.6 Z" style="fill: rgb(24, 69, 234);"/>
    <path xmlns="http://www.w3.org/2000/svg" d="M 657.7 785 C 643.8 785 630.8 788.9 619.7 795.8 C 564.7 763.2 509.5 730.8 454.1 698.8 C 439 690.1 435.8 679.8 433.2 661.9 C 431.6 650.9 429.7 641.9 427.4 634.4 C 425.3 627.6 426.9 620.2 431.7 615 L 378.2 584.4 C 375.8 586.9 374.4 590 374.2 593.2 L 374.2 593.3 C 373.1 595.5 372.8 598.7 372.8 602.6 C 372.7 619.6 371.6 674.8 371.9 686.1 C 372.5 711.1 377.9 725.3 400.1 737.6 C 462.9 772.6 525.2 808.6 586.2 846.7 C 585.7 850.3 585.4 853.9 585.4 857.6 C 585.4 897.6 618 930.1 657.9 930.1 C 697.9 930.1 730.4 897.6 730.4 857.6 C 730.4 817.6 697.7 785 657.7 785 Z M 657.7 905 C 632.6 905 612 885.5 610.3 860.8 C 610.2 859.7 610.2 858.6 610.2 857.5 C 610.2 835.2 625.5 816.5 646.2 811.4 C 649.9 810.5 653.7 810 657.7 810 C 684 810 705.2 831.3 705.2 857.5 C 705.3 883.8 684 905 657.7 905 Z" style="fill: rgb(24, 69, 234);"/>
    <path xmlns="http://www.w3.org/2000/svg" d="M 365.4 498.5 L 364.6 436.5 C 360.9 435.7 357.2 436.2 354.1 437.8 C 352.2 438.3 349.9 439.4 347.4 440.8 C 332.6 449.2 284.2 475.7 274.5 481.6 C 253.2 494.5 243.6 506.3 243.9 531.7 C 244.9 604.7 244.6 677.8 241.8 750.8 C 217 762.3 199.8 787.5 199.8 816.6 C 199.8 856.6 232.3 889.1 272.3 889.1 C 312.3 889.1 344.8 856.6 344.8 816.6 C 344.8 787.5 327.5 762.3 302.7 750.8 C 303.6 687 304.3 623.2 304.4 559.4 C 304.5 541.9 311.8 534 325.9 522.9 C 334.6 516.1 341.6 510 346.9 504.1 C 351.6 499.1 358.7 497 365.4 498.5 Z M 320 816.5 C 320 842.8 298.7 864 272.5 864 C 246.2 864 225 842.7 225 816.5 C 225 801.7 231.8 788.4 242.4 779.7 C 250.6 773 261.1 768.9 272.5 768.9 C 283.9 768.9 294.4 772.9 302.6 779.6 C 313.2 788.4 320 801.7 320 816.5 Z" style="fill: rgb(24, 69, 234);"/>
    <path xmlns="http://www.w3.org/2000/svg" d="M 487.5 350.6 C 486.2 346.1 482.9 342.6 479 340.8 L 478.9 340.8 C 477.8 340 476.6 339.2 475.2 338.4 C 460.6 329.7 413.5 301 403.6 295.5 C 381.7 283.4 366.8 280.9 344.9 293.9 C 280.8 331.9 215.8 368.8 149.7 403.3 C 138.3 395.8 124.7 391.5 110.1 391.5 C 70.1 391.5 37.6 424 37.6 464 C 37.6 504 70.1 536.5 110.1 536.5 C 150.1 536.5 182.6 504 182.6 464 C 182.6 461 182.4 458.1 182.1 455.2 C 238.6 423.8 294.9 392.3 351.1 360.3 C 366.3 351.6 376.8 354 393.4 360.8 C 403.8 365 412.5 367.9 420.2 369.7 C 427.1 371.3 432.4 376.5 434.4 383.2 L 487.5 350.6 Z M 110.2 511.6 C 83.9 511.6 62.7 490.3 62.7 464.1 C 62.7 437.9 84 416.6 110.2 416.6 C 115.5 416.6 120.7 417.5 125.5 419.1 C 144.3 425.5 157.8 443.2 157.8 464.1 C 157.8 465.8 157.7 467.4 157.5 469.1 C 155 493 134.7 511.6 110.2 511.6 Z" style="fill: rgb(24, 69, 234);"/>
    <path xmlns="http://www.w3.org/2000/svg" d="M 626.4 312.9 C 625.7 287.9 620.1 273.8 597.8 261.6 C 532.4 225.9 467.4 188.9 404 149.7 C 404.1 148.5 404.1 147.3 404.1 146.1 C 404.1 106.1 371.5 73.6 331.6 73.6 C 291.6 73.6 259.1 106.1 259.1 146.1 C 259.1 186.1 291.6 218.6 331.6 218.6 C 348.1 218.6 363.3 213.1 375.4 203.8 C 431.4 236.4 487.5 268.9 543.9 300.9 C 559.1 309.5 562.4 319.8 565.2 337.6 C 566.9 348.4 568.7 357.1 571 364.6 C 573.1 371.3 571.4 378.5 566.5 383.6 L 621.1 413.2 C 623.4 410.7 624.7 407.9 625.1 404.8 L 625.1 404.7 C 625.8 402.5 626.1 399.7 626.1 396.4 C 626 379.4 626.7 324.2 626.4 312.9 Z M 350.8 189.5 C 344.9 192.1 338.4 193.6 331.5 193.6 C 305.2 193.6 284 172.3 284 146.1 C 284 119.8 305.3 98.6 331.5 98.6 C 354.6 98.6 373.9 115.1 378.1 136.9 C 378.7 139.9 379 143 379 146.1 C 379 165.4 367.4 182.1 350.8 189.5 Z" style="fill: rgb(24, 69, 234);"/>
  </g>
  <g transform="matrix(0.028109, 0, 0, -0.026451, 147.995956, 174.306244)" fill="#000000" stroke="none" style="">
    <path d="M283 857 l-193 -112 0 -231 0 -230 205 -117 205 -116 185 107 186 108 -1 239 c0 132 -4 243 -8 246 -14 13 -372 219 -379 218 -5 0 -95 -51 -200 -112z m378 -48 l159 -90 0 -150 c0 -82 -2 -149 -5 -149 -2 0 -12 14 -20 31 -13 24 -16 55 -13 142 l3 112 -134 72 c-74 40 -136 73 -137 73 -1 0 -57 -95 -124 -210 -67 -116 -127 -213 -132 -216 -5 -4 -14 -2 -20 4 -6 6 35 87 124 241 73 127 135 231 137 231 2 0 75 -41 162 -91z m-264 27 c-9 -14 -62 -50 -117 -81 l-100 -57 0 -164 0 -164 247 -2 c186 -2 247 -6 251 -15 3 -10 -54 -13 -262 -13 l-266 0 2 191 3 191 125 73 c69 39 127 71 129 69 2 -2 -4 -14 -12 -28z m287 -297 c75 -133 136 -242 134 -244 -2 -1 -74 -43 -160 -93 l-158 -91 -142 82 c-139 80 -142 82 -106 85 31 3 56 -7 135 -54 54 -32 102 -57 108 -57 8 0 250 128 264 139 2 2 -52 102 -121 223 -94 164 -123 223 -116 235 5 9 12 16 16 16 4 0 70 -108 146 -241z m46 83 l0 -57 -41 70 c-57 97 -57 98 -5 69 l46 -26 0 -56z m-432 40 c-18 -32 -41 -70 -50 -83 -17 -24 -17 -24 -17 27 -1 54 8 68 64 97 17 9 31 16 33 17 2 0 -12 -26 -30 -58z m261 -97 c39 -69 71 -129 71 -135 0 -6 -56 -10 -150 -10 -82 0 -150 2 -150 6 0 11 147 264 154 264 2 0 36 -56 75 -125z m31 -290 c0 -2 -21 -15 -47 -29 l-48 -24 -50 29 -50 29 98 0 c53 0 97 -2 97 -5z" style="fill: rgb(19, 73, 236);"/>
  </g>
</svg>